<svg xmlns="http://www.w3.org/2000/svg" version="1.1" xmlns:xlink="http://www.w3.org/1999/xlink" xmlns:svgjs="http://svgjs.dev/svgjs" width="128" height="128" viewBox="0 0 128 128"><g transform="matrix(0.8046875,0,0,0.8046875,12.760752631578946,12.749252797623903)"><svg viewBox="0 0 95 95" data-background-color="#ffffff" preserveAspectRatio="xMidYMid meet" height="128" width="128" xmlns="http://www.w3.org/2000/svg" xmlns:xlink="http://www.w3.org/1999/xlink"><g id="tight-bounds" transform="matrix(1,0,0,1,-0.24049999999999727,-0.22989335703175584)"><svg viewBox="0 0 95.481 95.45978671406351" height="95.45978671406351" width="95.481"><g><svg viewBox="0 0 95.481 95.45978671406351" height="95.45978671406351" width="95.481"><g><svg viewBox="0 0 95.481 95.45978671406351" height="95.45978671406351" width="95.481"><g id="textblocktransform"><svg viewBox="0 0 95.481 95.45978671406351" height="95.45978671406351" width="95.481" id="textblock"><g><svg viewBox="0 0 95.481 95.45978671406351" height="95.45978671406351" width="95.481"><g><svg viewBox="0 0 95.481 95.45978671406351" height="95.45978671406351" width="95.481"><g><svg xmlns="http://www.w3.org/2000/svg" xml:space="preserve" viewBox="13.991999999999997 13.999999999999993 72.01600000000002 72" x="0" y="0" height="95.45978671406351" width="95.481" class="icon-icon-0" data-fill-palette-color="accent" id="icon-0"><path d="M49.992 14c-19.86 0-36 16.14-36 36 0 19.74 15.9 35.76 35.58 36h35.581c1.14 0 1.14-1.62 0-1.62h-24.54c14.699-4.5 25.38-18.18 25.38-34.38 0-19.86-16.14-36-36.001-36m0 1.62c19.021 0 34.381 15.36 34.381 34.38s-15.36 34.38-34.381 34.38c-19.02 0-34.38-15.36-34.38-34.38s15.36-34.38 34.38-34.38m0 3.66c-16.98 0-30.72 13.74-30.72 30.72s13.74 30.72 30.72 30.72S80.713 66.981 80.713 50s-13.74-30.72-30.721-30.72m0 1.62c16.081 0 29.101 13.02 29.101 29.1s-13.02 29.1-29.101 29.1c-16.08 0-29.1-13.02-29.1-29.1s13.021-29.1 29.1-29.1m0 2.82c-4.98 0-9 4.02-9 9s4.02 9 9 9 9.001-4.02 9.001-9-4.02-9-9.001-9m0 1.56a7.4 7.4 0 0 1 7.44 7.44c0 4.08-3.3 7.44-7.44 7.44s-7.44-3.36-7.44-7.44c0-4.14 3.301-7.44 7.44-7.44M32.712 41c-4.98 0-9 4.02-9 9s4.02 9 9 9 9-4.02 9-9-4.02-9-9-9m34.56 0c-4.979 0-9 4.02-9 9s4.021 9 9 9c4.98 0 9-4.02 9-9s-4.019-9-9-9m-34.56 1.56c4.08 0 7.44 3.3 7.44 7.44s-3.36 7.44-7.44 7.44a7.4 7.4 0 0 1-7.44-7.44 7.4 7.4 0 0 1 7.44-7.44m34.56 0a7.4 7.4 0 0 1 7.44 7.44 7.4 7.4 0 0 1-7.44 7.44c-4.08 0-7.439-3.301-7.439-7.44s3.359-7.44 7.439-7.44m-17.28 15.72c-4.98 0-9 4.02-9 9 0 4.979 4.02 9 9 9a8.99 8.99 0 0 0 9.001-9c0-4.98-4.02-9-9.001-9m0 1.56c4.141 0 7.44 3.36 7.44 7.44a7.4 7.4 0 0 1-7.44 7.439 7.4 7.4 0 0 1-7.44-7.439c0-4.08 3.301-7.44 7.44-7.44" fill="#d9cad3" data-fill-palette-color="accent"></path></svg></g></svg></g></svg></g></svg></g></svg></g><g></g></svg></g><defs></defs></svg><rect width="95.481" height="95.45978671406351" fill="none" stroke="none" visibility="hidden"></rect></g></svg></g></svg>