<svg xmlns="http://www.w3.org/2000/svg" version="1.1" xmlns:xlink="http://www.w3.org/1999/xlink" xmlns:svgjs="http://svgjs.dev/svgjs" width="2000" height="323" viewBox="0 0 2000 323"><g transform="matrix(1,0,0,1,-0.7326564705883811,0.985443636363641)"><svg viewBox="0 0 340 55" data-background-color="#ffffff" preserveAspectRatio="xMidYMid meet" height="323" width="2000" xmlns="http://www.w3.org/2000/svg" xmlns:xlink="http://www.w3.org/1999/xlink"><g id="tight-bounds" transform="matrix(1,0,0,1,0.12455160000001797,-0.16779999999999973)"><svg viewBox="0 0 339.75089679999996 55.33559999999999" height="55.33559999999999" width="339.75089679999996"><g><svg viewBox="0 0 339.75089679999996 55.33559999999999" height="55.33559999999999" width="339.75089679999996"><g><svg viewBox="0 0 339.75089679999996 55.33559999999999" height="55.33559999999999" width="339.75089679999996"><g id="textblocktransform"><svg viewBox="0 0 339.75089679999996 55.33559999999999" height="55.33559999999999" width="339.75089679999996" id="textblock"><g><svg viewBox="0 0 339.75089679999996 55.33559999999999" height="55.33559999999999" width="339.75089679999996"><g><svg><g></g><g></g></svg></g><g><svg><g><svg></svg></g><g></g></svg></g><g id="text-0"><svg viewBox="0 0 339.75089679999996 55.33559999999999" height="55.33559999999999" width="339.75089679999996"><g transform="matrix(1,0,0,1,0,0)"><svg width="271.3386" viewBox="-1.3 -33.65 167.68 34.199999999999996" height="55.33559999999999" data-palette-color="url(#e0385f70-9ee2-443e-9d57-96680a07acb6)"></svg></g><g><svg xmlns="http://www.w3.org/2000/svg" xml:space="preserve" viewBox="13.991999999999997 13.999999999999993 72.01600000000002 72" x="284.40299999999996" y="3.552713678800501e-15" height="55.335599999999985" width="55.3478968" class="icon-dxe-0" data-fill-palette-color="accent" id="dxe-0"><path d="M49.992 14c-19.86 0-36 16.14-36 36 0 19.74 15.9 35.76 35.58 36h35.581c1.14 0 1.14-1.62 0-1.62h-24.54c14.699-4.5 25.38-18.18 25.38-34.38 0-19.86-16.14-36-36.001-36m0 1.62c19.021 0 34.381 15.36 34.381 34.38s-15.36 34.38-34.381 34.38c-19.02 0-34.38-15.36-34.38-34.38s15.36-34.38 34.38-34.38m0 3.66c-16.98 0-30.72 13.74-30.72 30.72s13.74 30.72 30.72 30.72S80.713 66.981 80.713 50s-13.74-30.72-30.721-30.72m0 1.62c16.081 0 29.101 13.02 29.101 29.1s-13.02 29.1-29.101 29.1c-16.08 0-29.1-13.02-29.1-29.1s13.021-29.1 29.1-29.1m0 2.82c-4.98 0-9 4.02-9 9s4.02 9 9 9 9.001-4.02 9.001-9-4.02-9-9.001-9m0 1.56a7.4 7.4 0 0 1 7.44 7.44c0 4.08-3.3 7.44-7.44 7.44s-7.44-3.36-7.44-7.44c0-4.14 3.301-7.44 7.44-7.44M32.712 41c-4.98 0-9 4.02-9 9s4.02 9 9 9 9-4.02 9-9-4.02-9-9-9m34.56 0c-4.979 0-9 4.02-9 9s4.021 9 9 9c4.98 0 9-4.02 9-9s-4.019-9-9-9m-34.56 1.56c4.08 0 7.44 3.3 7.44 7.44s-3.36 7.44-7.44 7.44a7.4 7.4 0 0 1-7.44-7.44 7.4 7.4 0 0 1 7.44-7.44m34.56 0a7.4 7.4 0 0 1 7.44 7.44 7.4 7.4 0 0 1-7.44 7.44c-4.08 0-7.439-3.301-7.439-7.44s3.359-7.44 7.439-7.44m-17.28 15.72c-4.98 0-9 4.02-9 9 0 4.979 4.02 9 9 9a8.99 8.99 0 0 0 9.001-9c0-4.98-4.02-9-9.001-9m0 1.56c4.141 0 7.44 3.36 7.44 7.44a7.4 7.4 0 0 1-7.44 7.439 7.4 7.4 0 0 1-7.44-7.439c0-4.08 3.301-7.44 7.44-7.44" fill="#d9cad3" data-fill-palette-color="accent"></path></svg></g></svg></g></svg></g></svg></g></svg></g><g></g></svg></g><defs></defs><mask id="de5e47b5-dc1b-4497-bb8c-5e35beecb595"><g id="SvgjsG2671"><svg viewBox="0 0 339.75089679999996 55.33559999999999" height="55.33559999999999" width="339.75089679999996"><g><svg viewBox="0 0 339.75089679999996 55.33559999999999" height="55.33559999999999" width="339.75089679999996"><g><svg viewBox="0 0 339.75089679999996 55.33559999999999" height="55.33559999999999" width="339.75089679999996"><g id="SvgjsG2670"><svg viewBox="0 0 339.75089679999996 55.33559999999999" height="55.33559999999999" width="339.75089679999996" id="SvgjsSvg2669"><g><svg viewBox="0 0 339.75089679999996 55.33559999999999" height="55.33559999999999" width="339.75089679999996"><g><svg><g></g><g></g></svg></g><g><svg><g><svg></svg></g><g></g></svg></g><g id="SvgjsG2668"><svg viewBox="0 0 339.75089679999996 55.33559999999999" height="55.33559999999999" width="339.75089679999996"><g transform="matrix(1,0,0,1,0,0)"><svg width="271.3386" viewBox="-1.3 -33.65 167.68 34.199999999999996" height="55.33559999999999" data-palette-color="url(#e0385f70-9ee2-443e-9d57-96680a07acb6)"><path d="M8.05 0L-1.3 0 2.9-29.55 17.2-29.55 16.1-21.8 11.1-21.8 10.75-19.3 15.3-19.3 14.1-10.9 9.55-10.9 8.05 0ZM3.55-28.65L-0.4-0.9 7.35-0.9 8.9-11.8 13.45-11.8 14.35-18.4 9.8-18.4 10.4-22.7 15.35-22.7 16.2-28.65 3.55-28.65ZM7-1.35L0.1-1.35 3.9-28.2 15.75-28.2 15.05-23.15 10.1-23.15 9.35-17.95 13.9-17.95 13.1-12.25 8.55-12.25 7-1.35ZM21.55 0L13.7 0 18.15-31.5 25.95-31.5 21.55 0ZM18.75-30.6L14.5-0.9 20.95-0.9 25.15-30.6 18.75-30.6ZM20.6-1.35L15-1.35 19.05-30.15 24.65-30.15 20.6-1.35ZM30.15 0L22.35 0 25.85-24.75 33.65-24.75 30.15 0ZM26.4-23.8L23.2-0.9 29.6-0.9 32.8-23.8 26.4-23.8ZM29.25-1.4L23.7-1.4 26.75-23.35 32.34-23.35 29.25-1.4ZM30-26.4L30-26.4Q28.55-26.4 27.62-27.48 26.7-28.55 26.9-29.95L26.9-29.95Q27.15-31.5 28.3-32.58 29.45-33.65 31-33.65L31-33.65Q32.45-33.65 33.4-32.68 34.34-31.7 34.09-29.95L34.09-29.95Q33.9-28.55 32.67-27.48 31.45-26.4 30-26.4ZM30.1-27.2L30.1-27.2Q31.25-27.2 32.2-28.03 33.15-28.85 33.3-29.95L33.3-29.95Q33.5-31.25 32.77-32 32.05-32.75 30.9-32.75L30.9-32.75Q29.7-32.75 28.77-31.95 27.85-31.15 27.7-29.95L27.7-29.95Q27.55-28.85 28.22-28.03 28.9-27.2 30.1-27.2ZM30.15-27.6L30.15-27.6Q29.1-27.6 28.55-28.35 28-29.1 28.1-29.95L28.1-29.95Q28.2-30.9 29-31.63 29.8-32.35 30.85-32.35L30.85-32.35Q31.8-32.35 32.4-31.63 33-30.9 32.9-29.95L32.9-29.95Q32.8-29.1 31.95-28.35 31.1-27.6 30.15-27.6ZM39.99 0.55L39.99 0.55Q36.64 0.55 34.79-0.38 32.94-1.3 32.39-3.38 31.84-5.45 32.29-8.95L32.29-8.95 33.54-18.25Q34.09-22.2 36.52-23.7 38.94-25.2 43.09-25.2L43.09-25.2Q47.14-25.2 49.12-23.75 51.09-22.3 51.09-19.05L51.09-19.05Q51.09-18.2 50.89-17.05 50.69-15.9 50.47-14.83 50.24-13.75 50.04-13.15L50.04-13.15 42.19-13.15 42.04-12.25 50.34-12.25 49.84-8.65Q49.34-4.85 48.14-2.85 46.94-0.85 44.94-0.15 42.94 0.55 39.99 0.55ZM39.99-0.35L39.99-0.35Q42.74-0.35 44.57-1 46.39-1.65 47.49-3.48 48.59-5.3 48.99-8.8L48.99-8.8 49.29-11.35 41.69-11.35 40.89-5.65Q40.74-4.85 40.54-4.85L40.54-4.85Q40.29-4.85 40.34-5.55L40.34-5.55 42.14-18.85Q42.24-19.45 42.32-19.65 42.39-19.85 42.54-19.85L42.54-19.85Q42.84-19.85 42.74-19.25L42.74-19.25Q42.69-18.85 42.52-17.8 42.34-16.75 42.14-15.65 41.94-14.55 41.79-14.05L41.79-14.05 49.44-14.05Q49.59-14.5 49.79-15.4 49.99-16.3 50.14-17.3 50.29-18.3 50.29-19.05L50.29-19.05Q50.29-22 48.54-23.15 46.79-24.3 43.09-24.3L43.09-24.3Q39.34-24.3 37.12-22.98 34.89-21.65 34.39-18.1L34.39-18.1 33.14-8.8Q32.49-4.05 34.04-2.2 35.59-0.35 39.99-0.35ZM39.99-0.8L39.99-0.8Q37.44-0.8 35.87-1.43 34.29-2.05 33.72-3.78 33.14-5.5 33.59-8.8L33.59-8.8 34.84-18.05Q35.29-21.4 37.39-22.63 39.49-23.85 43.09-23.85L43.09-23.85Q46.69-23.85 48.29-22.8 49.89-21.75 49.89-19.25L49.89-19.25Q49.89-18.15 49.62-16.75 49.34-15.35 49.14-14.5L49.14-14.5 42.39-14.5Q42.49-14.85 42.67-15.88 42.84-16.9 43.02-17.95 43.19-19 43.19-19.5L43.19-19.5Q43.19-20.3 42.64-20.3L42.64-20.3Q41.89-20.3 41.69-18.95L41.69-18.95 39.89-5.75Q39.74-4.4 40.44-4.4L40.44-4.4Q40.79-4.4 41.04-4.67 41.29-4.95 41.39-5.75L41.39-5.75 42.04-10.9 48.79-10.9 48.54-8.8Q48.14-5.45 47.12-3.73 46.09-2 44.34-1.4 42.59-0.8 39.99-0.8ZM58.79 0L49.14 0 53.49-31.5 63.09-31.5 61.69-21Q62.19-22.2 62.49-23.2 62.79-24.2 62.79-24.75L62.79-24.75 72.64-24.75Q72.24-23.2 71.37-21.35 70.49-19.5 69.59-17.9L69.59-17.9Q68.54-16.05 67.34-14.15L67.34-14.15Q67.84-12.75 68.19-10.83 68.54-8.9 68.74-6.85 68.94-4.8 69.04-3 69.14-1.2 69.14 0L69.14 0 58.99 0 58.99-1.65 58.79 0ZM54.24-30.6L50.19-0.9 58.04-0.9 59.44-11.55Q59.69-9.4 59.79-6.7 59.89-4 59.89-1.85L59.89-1.85 59.89-0.9 68.24-0.9Q68.24-2.05 68.17-3.78 68.09-5.5 67.89-7.45 67.69-9.4 67.31-11.2 66.94-13 66.34-14.25L66.34-14.25Q66.99-15.2 67.56-16.13 68.14-17.05 68.64-17.9L68.64-17.9Q69.54-19.4 70.37-21.03 71.19-22.65 71.49-23.8L71.49-23.8 63.69-23.8Q63.69-23.1 63.04-21.7 62.39-20.3 61.57-18.78 60.74-17.25 60.09-16.25L60.09-16.25 62.04-30.6 54.24-30.6ZM57.64-1.35L50.74-1.35 54.64-30.15 61.54-30.15 59.39-14.55Q59.79-14.95 60.54-16.07 61.29-17.2 62.14-18.65 62.99-20.1 63.57-21.4 64.14-22.7 64.14-23.35L64.14-23.35 70.94-23.35Q70.64-22.3 69.81-20.75 68.99-19.2 68.09-17.75L68.09-17.75 65.84-14.3Q66.44-13.05 66.81-11.3 67.19-9.55 67.42-7.68 67.64-5.8 67.72-4.13 67.79-2.45 67.79-1.35L67.79-1.35 60.34-1.35Q60.34-3.05 60.29-5.45 60.24-7.85 60.04-10.23 59.84-12.6 59.34-14.25L59.34-14.25 57.64-1.35ZM78.94 0L69.59 0 73.79-29.55 88.09-29.55 86.99-21.8 81.99-21.8 81.64-19.3 86.19-19.3 84.99-10.9 80.44-10.9 78.94 0ZM74.44-28.65L70.49-0.9 78.24-0.9 79.79-11.8 84.34-11.8 85.24-18.4 80.69-18.4 81.29-22.7 86.24-22.7 87.09-28.65 74.44-28.65ZM77.89-1.35L70.99-1.35 74.79-28.2 86.64-28.2 85.94-23.15 80.99-23.15 80.24-17.95 84.79-17.95 83.99-12.25 79.44-12.25 77.89-1.35ZM92.39 0L84.59 0 88.09-24.75 95.89-24.75 92.39 0ZM88.64-23.8L85.44-0.9 91.84-0.9 95.04-23.8 88.64-23.8ZM91.49-1.4L85.94-1.4 88.99-23.35 94.59-23.35 91.49-1.4ZM92.24-26.4L92.24-26.4Q90.79-26.4 89.86-27.48 88.94-28.55 89.14-29.95L89.14-29.95Q89.39-31.5 90.54-32.58 91.69-33.65 93.24-33.65L93.24-33.65Q94.69-33.65 95.64-32.68 96.59-31.7 96.34-29.95L96.34-29.95Q96.14-28.55 94.91-27.48 93.69-26.4 92.24-26.4ZM92.34-27.2L92.34-27.2Q93.49-27.2 94.44-28.03 95.39-28.85 95.54-29.95L95.54-29.95Q95.74-31.25 95.01-32 94.29-32.75 93.14-32.75L93.14-32.75Q91.94-32.75 91.01-31.95 90.09-31.15 89.94-29.95L89.94-29.95Q89.79-28.85 90.46-28.03 91.14-27.2 92.34-27.2ZM92.39-27.6L92.39-27.6Q91.34-27.6 90.79-28.35 90.24-29.1 90.34-29.95L90.34-29.95Q90.44-30.9 91.24-31.63 92.04-32.35 93.09-32.35L93.09-32.35Q94.04-32.35 94.64-31.63 95.24-30.9 95.14-29.95L95.14-29.95Q95.04-29.1 94.19-28.35 93.34-27.6 92.39-27.6ZM110.93 0L93.18 0 96.68-24.75 104.93-24.75 104.88-23.25Q105.73-24.1 106.83-24.58 107.93-25.05 109.28-25.05L109.28-25.05Q111.98-25.05 112.96-23.45 113.93-21.85 113.58-19.3L113.58-19.3 110.93 0ZM97.43-23.85L94.18-0.9 101.93-0.9 104.18-17.65Q104.23-18.3 104.58-18.3L104.58-18.3Q104.88-18.3 104.83-17.75L104.83-17.75 102.48-0.9 110.18-0.9 112.73-19.4Q113.08-21.95 112.18-23.05 111.28-24.15 109.28-24.15L109.28-24.15Q107.38-24.15 106.06-23.23 104.73-22.3 103.93-21.15L103.93-21.15 104.03-23.85 97.43-23.85ZM101.53-1.35L94.78-1.35 97.83-23.4 103.63-23.4 103.53-19.4Q104.08-20.9 105.61-22.3 107.13-23.7 109.28-23.7L109.28-23.7Q111.23-23.7 111.88-22.58 112.53-21.45 112.28-19.5L112.28-19.5 109.78-1.35 102.98-1.35 105.28-17.8Q105.43-18.75 104.63-18.75L104.63-18.75Q103.93-18.75 103.78-17.8L103.78-17.8 101.53-1.35ZM120.98 0.3L120.98 0.3Q117.43 0.3 115.46-0.45 113.48-1.2 112.86-3.13 112.23-5.05 112.73-8.6L112.73-8.6 114.18-18.8Q114.53-21.35 115.51-22.73 116.48-24.1 117.86-24.63 119.23-25.15 120.73-25.15L120.73-25.15Q122.43-25.15 123.33-24.55L123.33-24.55Q123.43-25.15 123.53-26.18 123.63-27.2 123.76-28.33 123.88-29.45 124.01-30.35 124.13-31.25 124.18-31.55L124.18-31.55 133.68-31.55 130.23-6.25Q129.88-3.55 128.61-2.15 127.33-0.75 125.38-0.23 123.43 0.3 120.98 0.3ZM120.98-0.6L120.98-0.6Q123.18-0.6 124.96-1.05 126.73-1.5 127.91-2.75 129.08-4 129.38-6.4L129.38-6.4 132.68-30.6 124.93-30.6 123.98-23.15Q123.43-23.65 122.71-23.95 121.98-24.25 120.83-24.25L120.83-24.25Q119.48-24.25 118.28-23.78 117.08-23.3 116.21-22.1 115.33-20.9 115.03-18.7L115.03-18.7 113.63-8.45Q113.18-5.1 113.73-3.4 114.28-1.7 116.03-1.15 117.78-0.6 120.98-0.6ZM120.98-1.05L120.98-1.05Q118.18-1.05 116.48-1.53 114.78-2 114.18-3.58 113.58-5.15 114.03-8.4L114.03-8.4 115.48-18.65Q115.88-21.65 117.46-22.73 119.03-23.8 121.03-23.8L121.03-23.8Q123.63-23.8 124.23-21.85L124.23-21.85 125.33-30.15 132.18-30.15 128.93-6.45Q128.63-4.25 127.53-3.08 126.43-1.9 124.76-1.48 123.08-1.05 120.98-1.05ZM121.13-5.05L121.13-5.05Q121.48-5.05 121.73-5.33 121.98-5.6 122.08-6.4L122.08-6.4 123.73-18.05Q123.83-18.85 123.66-19.13 123.48-19.4 123.13-19.4L123.13-19.4Q122.43-19.4 122.23-18.05L122.23-18.05 120.58-6.4Q120.43-5.05 121.13-5.05ZM121.18-5.5L121.18-5.5Q120.88-5.5 121.03-6.35L121.03-6.35 122.73-18.25Q122.88-18.95 123.13-18.95L123.13-18.95Q123.23-18.95 123.31-18.8 123.38-18.65 123.28-18.1L123.28-18.1 121.63-6.45Q121.48-5.5 121.18-5.5ZM139.18 0.55L139.18 0.55Q135.78 0.55 133.9-0.35 132.03-1.25 131.48-3.35 130.93-5.45 131.43-8.95L131.43-8.95 132.73-18.25Q133.28-22.1 135.73-23.65 138.18-25.2 142.28-25.2L142.28-25.2Q146.48-25.2 148.58-23.45 150.68-21.7 150.28-17.85L150.28-17.85Q149.88-15.75 148.8-14.2 147.73-12.65 146.43-11.8L146.43-11.8Q146.13-11.6 145.83-11.45 145.53-11.3 145.08-11.1L145.08-11.1 149.38-11.1 149.03-8.65Q148.48-4.85 147.28-2.85 146.08-0.85 144.1-0.15 142.13 0.55 139.18 0.55ZM139.18-0.35L139.18-0.35Q141.93-0.35 143.73-1 145.53-1.65 146.6-3.48 147.68-5.3 148.18-8.8L148.18-8.8 148.38-10.2 140.73-10.2 140.08-5.55Q140.03-4.85 139.73-4.85L139.73-4.85Q139.48-4.85 139.53-5.55L139.53-5.55 140.28-10.95Q143.98-11.05 146.45-12.78 148.93-14.5 149.43-18L149.43-18Q149.78-21.45 147.93-22.88 146.08-24.3 142.28-24.3L142.28-24.3Q138.53-24.3 136.3-22.93 134.08-21.55 133.58-18.1L133.58-18.1 132.28-8.8Q131.83-5.6 132.33-3.75 132.83-1.9 134.5-1.13 136.18-0.35 139.18-0.35ZM139.18-0.8L139.18-0.8Q136.63-0.8 135.03-1.43 133.43-2.05 132.85-3.75 132.28-5.45 132.73-8.8L132.73-8.8 134.03-18.05Q134.48-21.4 136.58-22.63 138.68-23.85 142.28-23.85L142.28-23.85Q145.88-23.85 147.65-22.63 149.43-21.4 148.98-18.05L148.98-18.05Q148.68-15.8 147.33-14.33 145.98-12.85 144.03-12.1 142.08-11.35 139.88-11.35L139.88-11.35 139.03-5.55Q138.88-4.4 139.63-4.4L139.63-4.4Q140.38-4.4 140.53-5.55L140.53-5.55 141.13-9.75 147.88-9.75 147.73-8.8Q147.23-5.45 146.2-3.75 145.18-2.05 143.48-1.43 141.78-0.8 139.18-0.8ZM140.93-18.95L140.33-14.8Q141.08-15 141.5-15.8 141.93-16.6 142.13-17.55L142.13-17.55Q142.53-19.15 142.43-19.73 142.33-20.3 141.83-20.3L141.83-20.3Q141.13-20.3 140.93-18.95L140.93-18.95ZM140.73-15.4L140.73-15.4 141.33-18.9Q141.43-19.5 141.53-19.68 141.63-19.85 141.78-19.85L141.78-19.85Q142.18-19.85 141.73-17.7L141.73-17.7Q141.53-16.9 141.25-16.2 140.98-15.5 140.73-15.4ZM157.43 0L148.08 0 151.53-24.75 160.53-24.75 160.33-22.8Q161.43-24.1 163.2-24.63 164.98-25.15 166.38-24.95L166.38-24.95 165.23-16.25Q162.43-16.25 160.6-13.1 158.78-9.95 158.03-4.4L158.03-4.4 157.43 0ZM152.23-23.85L149.08-0.9 156.63-0.9Q156.93-2.65 157.05-3.43 157.18-4.2 157.28-5.05L157.28-5.05Q158.13-10.4 159.95-13.53 161.78-16.65 164.48-17L164.48-17 165.43-24.15Q163.93-24.45 162.2-23.45 160.48-22.45 159.33-20.9L159.33-20.9 159.73-23.85 152.23-23.85ZM156.28-1.35L149.63-1.35 152.63-23.4 159.28-23.4 158.68-19.05Q159.13-20.1 160.2-21.3 161.28-22.5 162.58-23.25 163.88-24 164.98-23.75L164.98-23.75 164.08-17.45Q163.18-17.45 162.13-16.85 161.08-16.25 160.08-14.8L160.08-14.8Q159.03-13.3 158.15-10.83 157.28-8.35 156.73-4.55L156.73-4.55 156.28-1.35Z" opacity="1" transform="matrix(1,0,0,1,0,0)" fill="white" class="wordmark-text-0"></path></svg></g><g><svg xmlns="http://www.w3.org/2000/svg" xml:space="preserve" viewBox="13.991999999999997 13.999999999999993 72.01600000000002 72" x="284.40299999999996" y="3.552713678800501e-15" height="55.335599999999985" width="55.3478968" class="icon-dxe-0" data-fill-palette-color="accent" id="SvgjsSvg2667"><path d="M49.992 14c-19.86 0-36 16.14-36 36 0 19.74 15.9 35.76 35.58 36h35.581c1.14 0 1.14-1.62 0-1.62h-24.54c14.699-4.5 25.38-18.18 25.38-34.38 0-19.86-16.14-36-36.001-36m0 1.62c19.021 0 34.381 15.36 34.381 34.38s-15.36 34.38-34.381 34.38c-19.02 0-34.38-15.36-34.38-34.38s15.36-34.38 34.38-34.38m0 3.66c-16.98 0-30.72 13.74-30.72 30.72s13.74 30.72 30.72 30.72S80.713 66.981 80.713 50s-13.74-30.72-30.721-30.72m0 1.62c16.081 0 29.101 13.02 29.101 29.1s-13.02 29.1-29.101 29.1c-16.08 0-29.1-13.02-29.1-29.1s13.021-29.1 29.1-29.1m0 2.82c-4.98 0-9 4.02-9 9s4.02 9 9 9 9.001-4.02 9.001-9-4.02-9-9.001-9m0 1.56a7.4 7.4 0 0 1 7.44 7.44c0 4.08-3.3 7.44-7.44 7.44s-7.44-3.36-7.44-7.44c0-4.14 3.301-7.44 7.44-7.44M32.712 41c-4.98 0-9 4.02-9 9s4.02 9 9 9 9-4.02 9-9-4.02-9-9-9m34.56 0c-4.979 0-9 4.02-9 9s4.021 9 9 9c4.98 0 9-4.02 9-9s-4.019-9-9-9m-34.56 1.56c4.08 0 7.44 3.3 7.44 7.44s-3.36 7.44-7.44 7.44a7.4 7.4 0 0 1-7.44-7.44 7.4 7.4 0 0 1 7.44-7.44m34.56 0a7.4 7.4 0 0 1 7.44 7.44 7.4 7.4 0 0 1-7.44 7.44c-4.08 0-7.439-3.301-7.439-7.44s3.359-7.44 7.439-7.44m-17.28 15.72c-4.98 0-9 4.02-9 9 0 4.979 4.02 9 9 9a8.99 8.99 0 0 0 9.001-9c0-4.98-4.02-9-9.001-9m0 1.56c4.141 0 7.44 3.36 7.44 7.44a7.4 7.4 0 0 1-7.44 7.439 7.4 7.4 0 0 1-7.44-7.439c0-4.08 3.301-7.44 7.44-7.44" fill="black"></path></svg></g></svg></g></svg></g></svg></g></svg></g><g></g></svg></g><defs><mask></mask></defs></svg><rect width="339.75089679999996" height="55.33559999999999" fill="black" stroke="none" visibility="hidden"></rect></g></mask><linearGradient x1="0" x2="1" y1="0.5" y2="0.5" id="e0385f70-9ee2-443e-9d57-96680a07acb6"><stop stop-color="#ffa62e" offset="0"></stop><stop stop-color="#f71b3d" offset="1"></stop></linearGradient><rect width="339.75089679999996" height="55.3356" fill="url(#e0385f70-9ee2-443e-9d57-96680a07acb6)" mask="url(#de5e47b5-dc1b-4497-bb8c-5e35beecb595)" data-fill-palette-color="primary"></rect></svg><rect width="339.75089679999996" height="55.33559999999999" fill="none" stroke="none" visibility="hidden"></rect></g></svg></g></svg>